# xmcd
#
# Track frame offsets:
# 150
# 17633
# 31875
# 58923
# 73073
#
# Disc length: 1161 seconds
#
# Revision: 0
# Processed by: cddbd v1.5.2PL0 Copyright (c) Steve Scherf et al.
# Submitted via: Audion 3.0.2 (http://www.panic.com/audion/)
#
DISCID=3f048705
DTITLE=Xenia - Tribute to Marilyn
DYEAR=1900
DGENRE=
TTITLE0=I Love To Make Love
TTITLE1=Make Love
TTITLE2=SIng
TTITLE3=Sexy
TTITLE4=RAdio
EXTD=
EXTT0=
EXTT1=
EXTT2=
EXTT3=
EXTT4=
PLAYORDER=
